# Blender v2.79 (sub 0) OBJ File: 'head.blend'
# www.blender.org
mtllib track.mtl
o Head_vao.001
v 0.800000 -0.112676 -0.983445
v 0.800000 -0.112676 1.466342
v 0.784628 -0.268748 -0.983445
v 0.784628 -0.268748 1.466342
v 0.739104 -0.418823 -0.983445
v 0.739104 -0.418823 1.466342
v 0.665176 -0.557132 -0.983445
v 0.665176 -0.557132 1.466342
v 0.565685 -0.678361 -0.983445
v 0.565685 -0.678362 1.466342
v 0.444456 -0.777852 -0.983445
v 0.444456 -0.777852 1.466342
v 0.306147 -0.851780 -0.983445
v 0.306147 -0.851780 1.466342
v 0.156072 -0.897304 -0.983445
v 0.156072 -0.897304 1.466342
v 0.000000 -0.912676 -0.983445
v 0.000000 -0.912676 1.466342
v -0.156072 -0.897304 -0.983445
v -0.156072 -0.897304 1.466342
v -0.306147 -0.851780 -0.983445
v -0.306147 -0.851780 1.466342
v -0.444456 -0.777852 -0.983445
v -0.444456 -0.777852 1.466342
v -0.565685 -0.678361 -0.983445
v -0.565685 -0.678362 1.466342
v -0.665176 -0.557132 -0.983445
v -0.665176 -0.557132 1.466342
v -0.739104 -0.418823 -0.983445
v -0.739104 -0.418823 1.466342
v -0.784628 -0.268748 -0.983445
v -0.784628 -0.268748 1.466342
v -0.800000 -0.112676 -0.983445
v -0.800000 -0.112676 1.466342
v -0.784628 0.043397 -0.983445
v -0.784628 0.043396 1.466342
v -0.739104 0.193471 -0.983445
v -0.739104 0.193471 1.466342
v -0.665176 0.331781 -0.983445
v -0.665176 0.331780 1.466342
v -0.565685 0.453010 -0.983445
v -0.565685 0.453010 1.466342
v -0.444456 0.552500 -0.983445
v -0.444456 0.552500 1.466342
v -0.306146 0.626428 -0.983445
v -0.306146 0.626428 1.466342
v -0.156072 0.671952 -0.983445
v -0.156072 0.671952 1.466342
v 0.000001 0.687324 -0.983445
v 0.000001 0.687324 1.466342
v 0.156073 0.671952 -0.983445
v 0.156073 0.671952 1.466342
v 0.306148 0.626427 -0.983445
v 0.306148 0.626427 1.466342
v 0.444457 0.552499 -0.983445
v 0.444457 0.552499 1.466342
v 0.565686 0.453009 -0.983445
v 0.565686 0.453009 1.466342
v 0.665176 0.331779 -0.983445
v 0.665176 0.331779 1.466342
v 0.739104 0.193470 -0.983445
v 0.739104 0.193470 1.466342
v 0.784629 0.043395 -0.983445
v 0.784629 0.043395 1.466342
vn 0.9952 -0.0980 -0.0000
vn 0.9569 -0.2903 -0.0000
vn 0.8819 -0.4714 -0.0000
vn 0.7730 -0.6344 -0.0000
vn 0.6344 -0.7730 -0.0000
vn 0.4714 -0.8819 -0.0000
vn 0.2903 -0.9569 0.0000
vn 0.0980 -0.9952 0.0000
vn -0.0980 -0.9952 0.0000
vn -0.2903 -0.9569 -0.0000
vn -0.4714 -0.8819 0.0000
vn -0.6344 -0.7730 -0.0000
vn -0.7730 -0.6344 -0.0000
vn -0.8819 -0.4714 -0.0000
vn -0.9569 -0.2903 -0.0000
vn -0.9952 -0.0980 -0.0000
vn -0.9952 0.0980 0.0000
vn -0.9569 0.2903 0.0000
vn -0.8819 0.4714 0.0000
vn -0.7730 0.6344 0.0000
vn -0.6344 0.7730 0.0000
vn -0.4714 0.8819 0.0000
vn -0.2903 0.9569 0.0000
vn -0.0980 0.9952 0.0000
vn 0.0980 0.9952 0.0000
vn 0.2903 0.9569 0.0000
vn 0.4714 0.8819 0.0000
vn 0.6344 0.7730 0.0000
vn 0.7730 0.6344 0.0000
vn 0.8819 0.4714 0.0000
vn 0.0000 0.0000 1.0000
vn 0.9569 0.2903 0.0000
vn 0.9952 0.0980 0.0000
vn 0.0000 0.0000 -1.0000
usemtl Material.004
s off
f 2//1 3//1 1//1
f 4//2 5//2 3//2
f 6//3 7//3 5//3
f 8//4 9//4 7//4
f 10//5 11//5 9//5
f 12//6 13//6 11//6
f 14//7 15//7 13//7
f 16//8 17//8 15//8
f 18//9 19//9 17//9
f 20//10 21//10 19//10
f 22//11 23//11 21//11
f 24//12 25//12 23//12
f 26//13 27//13 25//13
f 28//14 29//14 27//14
f 30//15 31//15 29//15
f 32//16 33//16 31//16
f 34//17 35//17 33//17
f 36//18 37//18 35//18
f 38//19 39//19 37//19
f 40//20 41//20 39//20
f 42//21 43//21 41//21
f 44//22 45//22 43//22
f 46//23 47//23 45//23
f 48//24 49//24 47//24
f 50//25 51//25 49//25
f 52//26 53//26 51//26
f 54//27 55//27 53//27
f 56//28 57//28 55//28
f 58//29 59//29 57//29
f 60//30 61//30 59//30
f 38//31 22//31 6//31
f 62//32 63//32 61//32
f 64//33 1//33 63//33
f 15//34 31//34 47//34
f 2//1 4//1 3//1
f 4//2 6//2 5//2
f 6//3 8//3 7//3
f 8//4 10//4 9//4
f 10//5 12//5 11//5
f 12//6 14//6 13//6
f 14//7 16//7 15//7
f 16//8 18//8 17//8
f 18//9 20//9 19//9
f 20//10 22//10 21//10
f 22//11 24//11 23//11
f 24//12 26//12 25//12
f 26//13 28//13 27//13
f 28//14 30//14 29//14
f 30//15 32//15 31//15
f 32//16 34//16 33//16
f 34//17 36//17 35//17
f 36//18 38//18 37//18
f 38//19 40//19 39//19
f 40//20 42//20 41//20
f 42//21 44//21 43//21
f 44//22 46//22 45//22
f 46//23 48//23 47//23
f 48//24 50//24 49//24
f 50//25 52//25 51//25
f 52//26 54//26 53//26
f 54//27 56//27 55//27
f 56//28 58//28 57//28
f 58//29 60//29 59//29
f 60//30 62//30 61//30
f 6//31 4//31 2//31
f 2//31 64//31 6//31
f 64//31 62//31 6//31
f 62//31 60//31 58//31
f 58//31 56//31 54//31
f 54//31 52//31 50//31
f 50//31 48//31 54//31
f 48//31 46//31 54//31
f 46//31 44//31 38//31
f 44//31 42//31 38//31
f 42//31 40//31 38//31
f 38//31 36//31 34//31
f 34//31 32//31 38//31
f 32//31 30//31 38//31
f 30//31 28//31 26//31
f 26//31 24//31 22//31
f 22//31 20//31 18//31
f 18//31 16//31 14//31
f 14//31 12//31 10//31
f 10//31 8//31 14//31
f 8//31 6//31 14//31
f 62//31 58//31 6//31
f 58//31 54//31 6//31
f 30//31 26//31 38//31
f 26//31 22//31 38//31
f 22//31 18//31 6//31
f 18//31 14//31 6//31
f 54//31 46//31 38//31
f 6//31 54//31 38//31
f 62//32 64//32 63//32
f 64//33 2//33 1//33
f 63//34 1//34 3//34
f 3//34 5//34 7//34
f 7//34 9//34 15//34
f 9//34 11//34 15//34
f 11//34 13//34 15//34
f 15//34 17//34 19//34
f 19//34 21//34 15//34
f 21//34 23//34 15//34
f 23//34 25//34 31//34
f 25//34 27//34 31//34
f 27//34 29//34 31//34
f 31//34 33//34 35//34
f 35//34 37//34 31//34
f 37//34 39//34 31//34
f 39//34 41//34 47//34
f 41//34 43//34 47//34
f 43//34 45//34 47//34
f 47//34 49//34 51//34
f 51//34 53//34 55//34
f 55//34 57//34 63//34
f 57//34 59//34 63//34
f 59//34 61//34 63//34
f 63//34 3//34 7//34
f 47//34 51//34 63//34
f 51//34 55//34 63//34
f 63//34 7//34 15//34
f 15//34 23//34 31//34
f 31//34 39//34 47//34
f 63//34 15//34 47//34
o Body_vao
v -0.800000 -0.663179 -1.960295
v -0.800000 0.936821 -1.960295
v 0.800000 -0.663179 -1.960295
v 0.800000 0.936821 -1.960295
v -0.800000 -0.663179 -0.360295
v -0.800000 0.936821 -0.360295
v 0.800000 -0.663179 -0.360295
v 0.800000 0.936821 -0.360295
vn 0.0000 0.0000 -1.0000
vn 1.0000 0.0000 0.0000
vn 0.0000 0.0000 1.0000
vn -1.0000 0.0000 0.0000
vn 0.0000 -1.0000 0.0000
vn 0.0000 1.0000 0.0000
usemtl Material.005
s off
f 66//35 67//35 65//35
f 68//36 71//36 67//36
f 72//37 69//37 71//37
f 70//38 65//38 69//38
f 71//39 65//39 67//39
f 68//40 70//40 72//40
f 66//35 68//35 67//35
f 68//36 72//36 71//36
f 72//37 70//37 69//37
f 70//38 66//38 65//38
f 71//39 69//39 65//39
f 68//40 66//40 70//40
o Cube
v 1.000000 -1.000000 2.000000
v -1.000000 -1.000000 2.000000
v -1.000000 -1.000000 -2.000000
v 1.000000 -1.000000 -1.999999
v 0.999999 0.000000 1.492959
v -1.000001 0.000000 1.492956
v -1.000000 0.000000 -2.000001
v 1.000000 0.000000 -2.000000
vn 0.0000 -1.0000 0.0000
vn 0.0000 1.0000 0.0000
vn 0.0000 0.4522 0.8919
vn -1.0000 -0.0000 -0.0000
vn 0.0000 -0.0000 -1.0000
vn 1.0000 0.0000 0.0000
usemtl Material
s off
f 74//41 76//41 73//41
f 80//42 78//42 77//42
f 77//43 74//43 73//43
f 78//44 75//44 74//44
f 75//45 80//45 76//45
f 77//46 76//46 80//46
f 74//41 75//41 76//41
f 80//42 79//42 78//42
f 77//43 78//43 74//43
f 78//44 79//44 75//44
f 75//45 79//45 80//45
f 77//46 73//46 76//46
o Ligjt_vao.003
v 0.094036 0.693568 1.261942
v 0.094036 0.693568 1.549903
v 0.092229 0.675222 1.261942
v 0.092229 0.675222 1.549903
v 0.086878 0.657582 1.261942
v 0.086878 0.657582 1.549903
v 0.078188 0.641324 1.261942
v 0.078188 0.641324 1.549903
v 0.066494 0.627074 1.261942
v 0.066494 0.627074 1.549903
v 0.052244 0.615380 1.261942
v 0.052244 0.615380 1.549903
v 0.035986 0.606690 1.261942
v 0.035986 0.606690 1.549903
v 0.018346 0.601339 1.261942
v 0.018346 0.601338 1.549903
v 0.000000 0.599532 1.261942
v 0.000000 0.599532 1.549903
v -0.018346 0.601339 1.261942
v -0.018346 0.601338 1.549903
v -0.035986 0.606690 1.261942
v -0.035986 0.606690 1.549903
v -0.052244 0.615380 1.261942
v -0.052244 0.615380 1.549903
v -0.066494 0.627074 1.261942
v -0.066494 0.627074 1.549903
v -0.078188 0.641324 1.261942
v -0.078188 0.641324 1.549903
v -0.086878 0.657582 1.261942
v -0.086878 0.657582 1.549903
v -0.092229 0.675222 1.261942
v -0.092229 0.675222 1.549903
v -0.094036 0.693568 1.261942
v -0.094036 0.693568 1.549903
v -0.092229 0.711913 1.261942
v -0.092229 0.711913 1.549903
v -0.086878 0.729554 1.261942
v -0.086878 0.729554 1.549903
v -0.078188 0.745812 1.261942
v -0.078188 0.745811 1.549903
v -0.066494 0.760061 1.261942
v -0.066494 0.760061 1.549903
v -0.052244 0.771756 1.261942
v -0.052244 0.771756 1.549903
v -0.035986 0.780446 1.261942
v -0.035986 0.780446 1.549903
v -0.018345 0.785797 1.261942
v -0.018345 0.785797 1.549903
v 0.000000 0.787604 1.261942
v 0.000000 0.787604 1.549903
v 0.018346 0.785797 1.261942
v 0.018346 0.785797 1.549903
v 0.035986 0.780446 1.261942
v 0.035986 0.780446 1.549903
v 0.052244 0.771756 1.261942
v 0.052244 0.771756 1.549903
v 0.066494 0.760061 1.261942
v 0.066494 0.760061 1.549903
v 0.078188 0.745811 1.261942
v 0.078188 0.745811 1.549903
v 0.086878 0.729554 1.261942
v 0.086878 0.729554 1.549903
v 0.092229 0.711913 1.261942
v 0.092229 0.711913 1.549903
vn 0.9952 -0.0980 0.0000
vn 0.9569 -0.2903 0.0000
vn 0.8819 -0.4714 0.0000
vn 0.7730 -0.6344 0.0000
vn 0.6344 -0.7730 0.0000
vn 0.4714 -0.8819 0.0000
vn 0.2903 -0.9569 0.0000
vn 0.0980 -0.9952 0.0000
vn -0.0980 -0.9952 0.0000
vn -0.2903 -0.9569 -0.0000
vn -0.4714 -0.8819 0.0000
vn -0.6344 -0.7730 -0.0000
vn -0.7730 -0.6344 0.0000
vn -0.8819 -0.4714 0.0000
vn -0.9569 -0.2903 0.0000
vn -0.9952 -0.0980 0.0000
vn -0.9952 0.0980 0.0000
vn -0.9569 0.2903 0.0000
vn -0.8819 0.4714 0.0000
vn -0.7730 0.6344 0.0000
vn -0.6344 0.7730 0.0000
vn -0.4714 0.8819 0.0000
vn -0.2903 0.9569 0.0000
vn -0.0980 0.9952 0.0000
vn 0.0980 0.9952 0.0000
vn 0.2903 0.9569 0.0000
vn 0.4714 0.8819 0.0000
vn 0.6344 0.7730 0.0000
vn 0.7730 0.6344 0.0000
vn 0.8819 0.4714 0.0000
vn 0.0000 0.0000 1.0000
vn 0.9569 0.2903 0.0000
vn 0.9952 0.0980 0.0000
vn -0.0000 0.0000 -1.0000
vn 0.0001 0.0000 1.0000
vn -0.0001 0.0000 1.0000
vn -0.0001 0.0000 -1.0000
usemtl Material.007
s off
f 82//47 83//47 81//47
f 84//48 85//48 83//48
f 86//49 87//49 85//49
f 88//50 89//50 87//50
f 90//51 91//51 89//51
f 92//52 93//52 91//52
f 94//53 95//53 93//53
f 96//54 97//54 95//54
f 98//55 99//55 97//55
f 100//56 101//56 99//56
f 102//57 103//57 101//57
f 104//58 105//58 103//58
f 106//59 107//59 105//59
f 108//60 109//60 107//60
f 110//61 111//61 109//61
f 112//62 113//62 111//62
f 114//63 115//63 113//63
f 116//64 117//64 115//64
f 118//65 119//65 117//65
f 120//66 121//66 119//66
f 122//67 123//67 121//67
f 124//68 125//68 123//68
f 126//69 127//69 125//69
f 128//70 129//70 127//70
f 130//71 131//71 129//71
f 132//72 133//72 131//72
f 134//73 135//73 133//73
f 136//74 137//74 135//74
f 138//75 139//75 137//75
f 140//76 141//76 139//76
f 118//77 102//77 86//77
f 142//78 143//78 141//78
f 144//79 81//79 143//79
f 95//80 111//80 127//80
f 82//47 84//47 83//47
f 84//48 86//48 85//48
f 86//49 88//49 87//49
f 88//50 90//50 89//50
f 90//51 92//51 91//51
f 92//52 94//52 93//52
f 94//53 96//53 95//53
f 96//54 98//54 97//54
f 98//55 100//55 99//55
f 100//56 102//56 101//56
f 102//57 104//57 103//57
f 104//58 106//58 105//58
f 106//59 108//59 107//59
f 108//60 110//60 109//60
f 110//61 112//61 111//61
f 112//62 114//62 113//62
f 114//63 116//63 115//63
f 116//64 118//64 117//64
f 118//65 120//65 119//65
f 120//66 122//66 121//66
f 122//67 124//67 123//67
f 124//68 126//68 125//68
f 126//69 128//69 127//69
f 128//70 130//70 129//70
f 130//71 132//71 131//71
f 132//72 134//72 133//72
f 134//73 136//73 135//73
f 136//74 138//74 137//74
f 138//75 140//75 139//75
f 140//76 142//76 141//76
f 86//81 84//81 82//81
f 82//77 144//77 86//77
f 144//77 142//77 86//77
f 142//81 140//81 138//81
f 138//81 136//81 134//81
f 134//77 132//77 130//77
f 130//77 128//77 134//77
f 128//77 126//77 134//77
f 126//77 124//77 118//77
f 124//77 122//77 118//77
f 122//77 120//77 118//77
f 118//81 116//81 114//81
f 114//77 112//77 118//77
f 112//77 110//77 118//77
f 110//82 108//82 106//82
f 106//77 104//77 102//77
f 102//77 100//77 98//77
f 98//77 96//77 94//77
f 94//77 92//77 90//77
f 90//77 88//77 94//77
f 88//77 86//77 94//77
f 142//77 138//77 86//77
f 138//77 134//77 86//77
f 110//77 106//77 118//77
f 106//77 102//77 118//77
f 102//77 98//77 86//77
f 98//77 94//77 86//77
f 134//77 126//77 118//77
f 86//77 134//77 118//77
f 142//78 144//78 143//78
f 144//79 82//79 81//79
f 143//83 81//83 83//83
f 83//80 85//80 87//80
f 87//80 89//80 95//80
f 89//80 91//80 95//80
f 91//80 93//80 95//80
f 95//80 97//80 99//80
f 99//80 101//80 95//80
f 101//80 103//80 95//80
f 103//80 105//80 111//80
f 105//80 107//80 111//80
f 107//80 109//80 111//80
f 111//80 113//80 115//80
f 115//80 117//80 111//80
f 117//80 119//80 111//80
f 119//80 121//80 127//80
f 121//80 123//80 127//80
f 123//80 125//80 127//80
f 127//80 129//80 131//80
f 131//80 133//80 135//80
f 135//80 137//80 143//80
f 137//80 139//80 143//80
f 139//80 141//80 143//80
f 143//80 83//80 87//80
f 127//80 131//80 143//80
f 131//80 135//80 143//80
f 143//80 87//80 95//80
f 95//80 103//80 111//80
f 111//80 119//80 127//80
f 143//80 95//80 127//80
o Chimney_vao.004
v 0.244359 -0.014456 0.732918
v 0.244359 1.395334 0.732918
v 0.239664 -0.014456 0.780590
v 0.239664 1.395334 0.780590
v 0.225759 -0.014456 0.826430
v 0.225759 1.395334 0.826430
v 0.203177 -0.014456 0.868676
v 0.203177 1.395334 0.868676
v 0.172788 -0.014456 0.905706
v 0.172788 1.395334 0.905706
v 0.135759 -0.014456 0.936095
v 0.135759 1.395334 0.936095
v 0.093512 -0.014456 0.958676
v 0.093512 1.395334 0.958676
v 0.047672 -0.014456 0.972582
v 0.047672 1.395334 0.972582
v 0.000000 -0.014456 0.977277
v 0.000000 1.395334 0.977277
v -0.047672 -0.014456 0.972582
v -0.047672 1.395334 0.972582
v -0.093512 -0.014456 0.958676
v -0.093512 1.395334 0.958676
v -0.135759 -0.014456 0.936095
v -0.135759 1.395334 0.936095
v -0.172788 -0.014456 0.905706
v -0.172788 1.395334 0.905706
v -0.203177 -0.014456 0.868676
v -0.203177 1.395334 0.868676
v -0.225759 -0.014456 0.826430
v -0.225759 1.395334 0.826430
v -0.239664 -0.014456 0.780590
v -0.239664 1.395334 0.780590
v -0.244359 -0.014456 0.732917
v -0.244359 1.395334 0.732917
v -0.239664 -0.014456 0.685245
v -0.239664 1.395334 0.685245
v -0.225759 -0.014456 0.639405
v -0.225759 1.395334 0.639405
v -0.203177 -0.014456 0.597159
v -0.203177 1.395334 0.597159
v -0.172788 -0.014456 0.560129
v -0.172788 1.395334 0.560129
v -0.135759 -0.014456 0.529740
v -0.135759 1.395334 0.529740
v -0.093512 -0.014456 0.507159
v -0.093512 1.395334 0.507159
v -0.047672 -0.014456 0.493254
v -0.047672 1.395334 0.493254
v 0.000000 -0.014456 0.488558
v 0.000000 1.395334 0.488558
v 0.047672 -0.014456 0.493254
v 0.047672 1.395334 0.493254
v 0.093513 -0.014456 0.507159
v 0.093513 1.395334 0.507159
v 0.135759 -0.014456 0.529740
v 0.135759 1.395334 0.529740
v 0.172788 -0.014456 0.560130
v 0.172788 1.395334 0.560130
v 0.203178 -0.014456 0.597159
v 0.203178 1.395334 0.597159
v 0.225759 -0.014456 0.639406
v 0.225759 1.395334 0.639406
v 0.239664 -0.014456 0.685246
v 0.239664 1.395334 0.685246
vn 0.9952 0.0000 0.0980
vn 0.9569 0.0000 0.2903
vn 0.8819 0.0000 0.4714
vn 0.7730 0.0000 0.6344
vn 0.6344 0.0000 0.7730
vn 0.4714 0.0000 0.8819
vn 0.2903 0.0000 0.9569
vn 0.0980 0.0000 0.9952
vn -0.0980 0.0000 0.9952
vn -0.2903 0.0000 0.9569
vn -0.4714 0.0000 0.8819
vn -0.6344 0.0000 0.7730
vn -0.7730 0.0000 0.6344
vn -0.8819 0.0000 0.4714
vn -0.9569 0.0000 0.2903
vn -0.9952 0.0000 0.0980
vn -0.9952 0.0000 -0.0980
vn -0.9569 0.0000 -0.2903
vn -0.8819 0.0000 -0.4714
vn -0.7730 0.0000 -0.6344
vn -0.6344 0.0000 -0.7730
vn -0.4714 0.0000 -0.8819
vn -0.2903 0.0000 -0.9569
vn -0.0980 0.0000 -0.9952
vn 0.0980 0.0000 -0.9952
vn 0.2903 0.0000 -0.9569
vn 0.4714 0.0000 -0.8819
vn 0.6344 0.0000 -0.7730
vn 0.7730 0.0000 -0.6344
vn 0.8819 0.0000 -0.4714
vn 0.0000 1.0000 0.0000
vn 0.9569 0.0000 -0.2903
vn 0.9952 0.0000 -0.0980
vn 0.0000 -1.0000 0.0000
usemtl Material.006
s off
f 146//84 147//84 145//84
f 148//85 149//85 147//85
f 150//86 151//86 149//86
f 152//87 153//87 151//87
f 154//88 155//88 153//88
f 156//89 157//89 155//89
f 158//90 159//90 157//90
f 160//91 161//91 159//91
f 162//92 163//92 161//92
f 164//93 165//93 163//93
f 166//94 167//94 165//94
f 168//95 169//95 167//95
f 170//96 171//96 169//96
f 172//97 173//97 171//97
f 174//98 175//98 173//98
f 176//99 177//99 175//99
f 178//100 179//100 177//100
f 180//101 181//101 179//101
f 182//102 183//102 181//102
f 184//103 185//103 183//103
f 186//104 187//104 185//104
f 188//105 189//105 187//105
f 190//106 191//106 189//106
f 192//107 193//107 191//107
f 194//108 195//108 193//108
f 196//109 197//109 195//109
f 198//110 199//110 197//110
f 200//111 201//111 199//111
f 202//112 203//112 201//112
f 204//113 205//113 203//113
f 182//114 166//114 150//114
f 206//115 207//115 205//115
f 208//116 145//116 207//116
f 159//117 175//117 191//117
f 146//84 148//84 147//84
f 148//85 150//85 149//85
f 150//86 152//86 151//86
f 152//87 154//87 153//87
f 154//88 156//88 155//88
f 156//89 158//89 157//89
f 158//90 160//90 159//90
f 160//91 162//91 161//91
f 162//92 164//92 163//92
f 164//93 166//93 165//93
f 166//94 168//94 167//94
f 168//95 170//95 169//95
f 170//96 172//96 171//96
f 172//97 174//97 173//97
f 174//98 176//98 175//98
f 176//99 178//99 177//99
f 178//100 180//100 179//100
f 180//101 182//101 181//101
f 182//102 184//102 183//102
f 184//103 186//103 185//103
f 186//104 188//104 187//104
f 188//105 190//105 189//105
f 190//106 192//106 191//106
f 192//107 194//107 193//107
f 194//108 196//108 195//108
f 196//109 198//109 197//109
f 198//110 200//110 199//110
f 200//111 202//111 201//111
f 202//112 204//112 203//112
f 204//113 206//113 205//113
f 150//114 148//114 146//114
f 146//114 208//114 150//114
f 208//114 206//114 150//114
f 206//114 204//114 202//114
f 202//114 200//114 198//114
f 198//114 196//114 194//114
f 194//114 192//114 198//114
f 192//114 190//114 198//114
f 190//114 188//114 182//114
f 188//114 186//114 182//114
f 186//114 184//114 182//114
f 182//114 180//114 178//114
f 178//114 176//114 182//114
f 176//114 174//114 182//114
f 174//114 172//114 170//114
f 170//114 168//114 166//114
f 166//114 164//114 162//114
f 162//114 160//114 158//114
f 158//114 156//114 154//114
f 154//114 152//114 158//114
f 152//114 150//114 158//114
f 206//114 202//114 150//114
f 202//114 198//114 150//114
f 174//114 170//114 182//114
f 170//114 166//114 182//114
f 166//114 162//114 150//114
f 162//114 158//114 150//114
f 198//114 190//114 182//114
f 150//114 198//114 182//114
f 206//115 208//115 207//115
f 208//116 146//116 145//116
f 207//117 145//117 147//117
f 147//117 149//117 151//117
f 151//117 153//117 159//117
f 153//117 155//117 159//117
f 155//117 157//117 159//117
f 159//117 161//117 163//117
f 163//117 165//117 159//117
f 165//117 167//117 159//117
f 167//117 169//117 175//117
f 169//117 171//117 175//117
f 171//117 173//117 175//117
f 175//117 177//117 179//117
f 179//117 181//117 175//117
f 181//117 183//117 175//117
f 183//117 185//117 191//117
f 185//117 187//117 191//117
f 187//117 189//117 191//117
f 191//117 193//117 195//117
f 195//117 197//117 199//117
f 199//117 201//117 207//117
f 201//117 203//117 207//117
f 203//117 205//117 207//117
f 207//117 147//117 151//117
f 191//117 195//117 207//117
f 195//117 199//117 207//117
f 207//117 151//117 159//117
f 159//117 167//117 175//117
f 175//117 183//117 191//117
f 207//117 159//117 191//117
o Wheel_vao.002
v 1.151038 -0.849602 1.416668
v -1.151038 -0.849602 1.416668
v -1.151038 -0.849602 -1.959317
v 1.151038 -0.849602 -1.959316
v 1.151037 -0.141268 1.057513
v -1.151039 -0.141268 1.057511
v -1.151038 -0.141268 -1.959317
v 1.151038 -0.141268 -1.959316
vn 0.0000 -1.0000 0.0000
vn 0.0000 1.0000 -0.0000
vn 0.0000 0.4522 0.8919
vn -1.0000 -0.0000 -0.0000
vn 0.0000 -0.0000 -1.0000
vn 1.0000 0.0000 0.0000
usemtl Material.002
s off
f 210//118 212//118 209//118
f 216//119 214//119 213//119
f 213//120 210//120 209//120
f 214//121 211//121 210//121
f 211//122 216//122 212//122
f 213//123 212//123 216//123
f 210//118 211//118 212//118
f 216//119 215//119 214//119
f 213//120 214//120 210//120
f 214//121 215//121 211//121
f 211//122 215//122 216//122
f 213//123 209//123 212//123
