# Blender v2.79 (sub 0) OBJ File: ''
# www.blender.org
mtllib body.mtl
o 立方體
v -1.000000 -0.500000 0.500000
v -1.000000 0.500000 0.500000
v -1.000000 0.500000 -0.500000
v -1.000000 -0.500000 -0.500000
v 1.000000 -0.500000 -0.500000
v 1.000000 -0.500000 0.500000
v 1.000000 0.500000 0.500000
v -0.848014 0.500000 0.424007
v -0.848014 0.500000 -0.424007
v 0.848014 0.500000 -0.424007
v 1.000000 0.500000 -0.500000
v 0.848014 0.500000 0.424007
v -0.848014 -0.424007 0.424007
v -0.848014 -0.424007 -0.424007
v 0.848014 -0.424007 -0.424007
v 0.848014 -0.424007 0.424007
vn -1.0000 -0.0000 0.0000
vn 0.0000 -1.0000 -0.0000
vn 0.0000 -0.0000 1.0000
vn -0.0000 1.0000 0.0000
vn 0.0000 0.0000 -1.0000
vn 1.0000 0.0000 0.0000
usemtl 材質
s 1
f 1//1 2//1 3//1 4//1
f 4//2 5//2 6//2 1//2
f 6//3 7//3 2//3 1//3
f 2//4 8//4 9//4 10//4 11//4 3//4
f 2//4 7//4 11//4 10//4 12//4 8//4
f 4//5 3//5 11//5 5//5
f 5//6 11//6 7//6 6//6
f 9//6 8//6 13//6 14//6
f 10//3 9//3 14//3 15//3
f 14//4 13//4 16//4 15//4
f 8//5 12//5 16//5 13//5
f 12//1 10//1 15//1 16//1
