# Blender v2.79 (sub 0) OBJ File: ''
# www.blender.org
mtllib head.mtl
o Cube.003
v 1.000000 -0.500000 -0.500000
v 1.000000 -0.500000 0.500000
v -1.000000 -0.500000 0.500000
v -1.000000 -0.500000 -0.500000
v 0.708334 -0.424801 -0.500000
v -1.000000 0.000000 -0.500000
v -0.979658 -0.070634 -0.500000
v -0.979658 -0.424801 -0.500000
v 0.746480 0.000000 -0.499999
v 0.746478 -0.000000 0.500000
v 0.708334 -0.424801 0.500000
v -0.979658 -0.424801 0.500000
v -0.979658 -0.070634 0.500000
v -1.000000 -0.000000 0.500000
v 0.708334 -0.424801 -0.575519
v -0.979658 -0.424801 -0.575519
v 0.528756 -0.070634 -0.500000
v -0.979658 -0.070634 -0.575519
v 0.733171 0.000000 -0.394451
v 0.733171 -0.000000 0.394451
v -0.180147 -0.000000 0.394451
v -0.180147 -0.000000 0.400000
v -0.518443 -0.000000 0.400000
v 0.528756 -0.070634 0.500000
v -0.980147 -0.000000 0.400000
v -0.980147 0.000000 -0.400000
v -0.180147 0.000000 -0.400000
v -0.180147 0.000000 -0.394451
v 0.528756 -0.070634 -0.575518
v 0.733171 0.021698 -0.392314
v 0.733171 0.096735 -0.369552
v 0.733171 0.165890 -0.332588
v 0.733171 0.226505 -0.282843
v 0.733171 0.276250 -0.222228
v 0.733171 0.313214 -0.153074
v 0.733171 0.335976 -0.078036
v 0.733171 0.339105 -0.046262
v 0.733171 0.337611 -0.046114
v 0.733171 0.328791 -0.043439
v 0.733171 0.320662 -0.039094
v 0.733171 0.313537 -0.033247
v 0.733171 0.307690 -0.026122
v 0.733171 0.303345 -0.017993
v 0.733171 0.300669 -0.009173
v 0.733171 0.299766 0.000000
v 0.733171 0.300669 0.009173
v 0.733171 0.303345 0.017993
v 0.733171 0.307690 0.026122
v 0.733171 0.313537 0.033247
v 0.733171 0.320662 0.039094
v 0.733171 0.328791 0.043439
v 0.733171 0.337611 0.046115
v 0.733171 0.339105 0.046262
v 0.733171 0.335976 0.078036
v 0.733171 0.313214 0.153073
v 0.733171 0.276250 0.222228
v 0.733171 0.226505 0.282843
v 0.733171 0.165890 0.332588
v 0.733171 0.096735 0.369552
v 0.733171 0.021698 0.392314
v -0.180147 0.021698 0.392314
v -0.979658 -0.070634 0.575519
v 0.528755 -0.070634 0.575520
v 0.708334 -0.424801 0.575519
v -0.979658 -0.424801 0.575519
v -0.180147 0.021698 -0.392314
v -0.180147 0.096735 -0.369552
v -0.180147 0.165890 -0.332588
v -0.180147 0.226505 -0.282843
v -0.180147 0.276250 -0.222228
v -0.180147 0.313214 -0.153074
v -0.180147 0.316616 -0.141857
v 0.366459 0.322586 -0.122179
v 0.390295 0.323298 -0.119832
v 0.413215 0.325407 -0.112879
v 0.434338 0.328832 -0.101588
v 0.452853 0.333441 -0.086394
v 0.459711 0.335976 -0.078036
v 0.468047 0.336976 -0.067879
v 0.477277 0.338677 -0.050611
v 0.630971 0.339105 -0.046262
v 0.774952 0.337611 -0.046114
v 0.774952 0.328791 -0.043439
v 0.774952 0.320662 -0.039094
v 0.774952 0.313537 -0.033247
v 0.774952 0.307690 -0.026122
v 0.774952 0.303345 -0.017993
v 0.774952 0.300669 -0.009173
v 0.774952 0.299766 0.000000
v 0.774952 0.300669 0.009173
v 0.774952 0.303345 0.017993
v 0.774952 0.307690 0.026122
v 0.774952 0.313537 0.033247
v 0.774952 0.320662 0.039094
v 0.774952 0.328791 0.043439
v 0.774952 0.337611 0.046115
v 0.630971 0.339105 0.046262
v 0.477277 0.338677 0.050612
v 0.468047 0.336976 0.067880
v 0.459713 0.335976 0.078036
v 0.452853 0.333441 0.086394
v 0.434338 0.328831 0.101589
v 0.413215 0.325406 0.112880
v 0.390295 0.323297 0.119832
v 0.366459 0.322585 0.122180
v -0.180147 0.316616 0.141857
v -0.180147 0.313214 0.153073
v -0.180147 0.276250 0.222228
v -0.180147 0.226505 0.282843
v -0.180147 0.165890 0.332588
v -0.180147 0.096735 0.369552
v 0.630971 0.346784 -0.047018
v 0.774952 0.346784 -0.047018
v 0.774952 0.355956 -0.046114
v 0.774952 0.364777 -0.043439
v 0.774952 0.372905 -0.039094
v 0.774952 0.380031 -0.033247
v 0.774952 0.385878 -0.026122
v 0.774952 0.390223 -0.017993
v 0.774952 0.392898 -0.009173
v 0.774952 0.393802 0.000000
v 0.774952 0.392898 0.009173
v 0.774952 0.390223 0.017993
v 0.774952 0.385878 0.026122
v 0.774952 0.380031 0.033247
v 0.774952 0.372905 0.039094
v 0.774952 0.364777 0.043439
v 0.774952 0.355956 0.046115
v 0.774952 0.346784 0.047018
v 0.630971 0.346784 0.047018
v -0.180147 0.316979 -0.140660
v 0.342623 0.323298 -0.119832
v 0.434338 0.697667 -0.101588
v 0.452853 0.697667 -0.086394
v 0.468047 0.697667 -0.067879
v 0.630971 0.343662 -0.000000
v 0.630971 0.355956 0.046115
v 0.630971 0.364777 0.043439
v 0.630971 0.372905 0.039094
v 0.630971 0.380031 0.033247
v 0.630971 0.385878 0.026122
v 0.630971 0.390223 0.017993
v 0.630971 0.392898 0.009173
v 0.630971 0.393802 0.000000
v 0.630971 0.392898 -0.009173
v 0.630971 0.390223 -0.017993
v 0.630971 0.385878 -0.026122
v 0.630971 0.380031 -0.033247
v 0.630971 0.372905 -0.039094
v 0.630971 0.364777 -0.043439
v 0.630971 0.355956 -0.046114
v 0.452853 0.697667 0.086394
v 0.434338 0.697667 0.101589
v 0.468047 0.697667 0.067880
v 0.342622 0.323297 0.119832
v -0.180147 0.316979 0.140660
v -0.180147 0.317896 -0.137640
v 0.319703 0.325407 -0.112879
v 0.342623 0.697667 -0.119832
v 0.366459 0.697667 -0.122179
v 0.390295 0.697667 -0.119832
v 0.413215 0.697667 -0.112879
v 0.319703 0.697667 -0.112879
v 0.298580 0.697667 -0.101589
v 0.280065 0.697667 -0.086394
v 0.264870 0.697667 -0.067879
v 0.253579 0.697667 -0.046756
v 0.246627 0.697667 -0.023836
v 0.244279 0.697667 0.000000
v 0.246627 0.697667 0.023836
v 0.253579 0.697667 0.046756
v 0.264870 0.697667 0.067880
v 0.280064 0.697667 0.086394
v 0.298580 0.697667 0.101589
v 0.319703 0.697667 0.112880
v 0.342622 0.697667 0.119832
v 0.366459 0.697667 0.122180
v 0.390295 0.697667 0.119832
v 0.413215 0.697667 0.112880
v 0.479338 0.697667 0.046756
v 0.486291 0.697667 0.023836
v 0.488638 0.697667 0.000000
v 0.486291 0.697667 -0.023836
v 0.479338 0.697667 -0.046756
v 0.481358 0.339713 -0.040097
v 0.486291 0.341314 -0.023836
v 0.488638 0.343662 -0.000000
v 0.488638 0.343662 0.000000
v 0.486291 0.341314 0.023836
v 0.481358 0.339713 0.040097
v 0.319703 0.325406 0.112880
v -0.180147 0.317895 0.137640
v -0.180147 0.319371 -0.132776
v 0.298580 0.328832 -0.101589
v 0.280065 0.333441 -0.086394
v 0.273206 0.335976 -0.078036
v 0.264870 0.336976 -0.067879
v 0.258943 0.338068 -0.056791
v 0.253579 0.339057 -0.046756
v 0.248651 0.340657 -0.030508
v 0.246627 0.341314 -0.023836
v 0.244279 0.343662 -0.000000
v 0.244279 0.343662 0.000000
v 0.246627 0.341314 0.023836
v 0.248651 0.340657 0.030508
v 0.253579 0.339057 0.046756
v 0.258943 0.338068 0.056791
v 0.264870 0.336976 0.067880
v 0.273205 0.335976 0.078036
v 0.280064 0.333441 0.086394
v 0.298580 0.328831 0.101589
v 0.479338 0.339057 0.046756
v 0.479338 0.339057 -0.046756
v -0.180147 0.319371 0.132776
v -0.180147 0.321380 -0.126155
v -0.180147 0.342672 0.010059
v -0.180147 0.343662 -0.000000
v -0.180147 0.321379 0.126155
v -0.180147 0.322486 -0.122509
v -0.180147 0.336845 -0.069218
v -0.180147 0.335976 -0.078036
v -0.180147 0.337946 -0.058035
v -0.180147 0.337264 -0.064960
v -0.180147 0.343662 -0.000000
v -0.180147 0.342398 -0.012839
v -0.180147 0.342398 0.012839
v -0.180147 0.335976 0.078036
v -0.180147 0.336845 0.069218
v -0.180147 0.322485 0.122509
v -0.180147 0.337946 0.058035
v -0.180147 0.337264 0.064959
v -0.980147 0.468410 0.400000
v -0.980147 0.468411 -0.400000
v -0.180147 0.468410 0.400000
v -0.180147 0.468411 -0.400000
vn 0.0000 -1.0000 -0.0000
vn 0.0000 0.0000 -1.0000
vn 0.8919 0.4522 0.0000
vn -0.0000 -0.0000 1.0000
vn -1.0000 -0.0000 -0.0000
vn -0.0000 1.0000 0.0000
vn 1.0000 0.0000 0.0000
vn 0.0000 0.0980 0.9952
vn 0.0000 0.0980 -0.9952
vn 0.0000 0.2903 -0.9569
vn 0.0000 0.4714 -0.8819
vn 0.0000 0.6344 -0.7730
vn 0.0000 0.7730 -0.6344
vn 0.0000 0.8819 -0.4714
vn 0.0000 0.9569 -0.2903
vn 0.0000 0.9952 -0.0980
vn 0.0000 -0.2903 -0.9569
vn 0.0000 -0.4714 -0.8819
vn 0.0000 -0.6344 -0.7730
vn 0.0000 -0.7730 -0.6344
vn 0.0000 -0.8819 -0.4714
vn 0.0000 -0.9569 -0.2903
vn 0.0000 -0.9952 -0.0980
vn 0.0000 -0.9952 0.0980
vn 0.0000 -0.9569 0.2903
vn 0.0000 -0.8819 0.4714
vn 0.0000 -0.7730 0.6344
vn 0.0000 -0.6344 0.7730
vn 0.0000 -0.4714 0.8819
vn 0.0000 -0.2903 0.9569
vn 0.0000 0.9952 0.0980
vn 0.0000 0.9569 0.2903
vn -0.0000 0.9570 0.2902
vn 0.0000 0.8819 0.4714
vn 0.0000 0.7730 0.6344
vn 0.0000 0.6344 0.7730
vn 0.0000 0.4714 0.8819
vn 0.0000 0.2903 0.9569
vn 0.0000 -0.0980 -0.9952
vn 0.0000 -0.0980 0.9952
vn -0.0000 0.9570 -0.2902
vn 0.6344 0.0000 -0.7730
vn 0.7730 -0.0000 -0.6344
vn 0.6344 -0.0000 0.7730
vn 0.7730 0.0000 0.6344
vn -0.0980 0.0000 -0.9952
vn 0.0980 0.0000 -0.9952
vn 0.4714 0.0000 -0.8819
vn 0.4714 -0.0000 0.8819
vn 0.0980 -0.0000 0.9952
vn -0.0980 -0.0000 0.9952
vn -0.2903 0.0000 -0.9569
vn 0.2903 0.0000 -0.9569
vn -0.4714 0.0000 -0.8819
vn -0.6344 0.0000 -0.7730
vn -0.7730 0.0000 -0.6344
vn -0.8819 -0.0000 -0.4714
vn -0.9569 0.0000 -0.2903
vn -0.9952 0.0000 -0.0980
vn -0.9952 -0.0000 0.0980
vn -0.9569 0.0000 0.2903
vn -0.8819 0.0000 0.4714
vn -0.7730 -0.0000 0.6344
vn -0.6344 -0.0000 0.7730
vn -0.4714 -0.0000 0.8819
vn -0.2903 -0.0000 0.9569
vn 0.2903 -0.0000 0.9569
vn 0.8819 -0.0000 0.4714
vn 0.9569 -0.0000 0.2903
vn 0.9952 0.0000 0.0980
vn 0.9952 0.0000 -0.0980
vn 0.9569 -0.0000 -0.2903
vn 0.8819 -0.0000 -0.4714
vn 0.0000 0.9835 0.1808
vn 0.0000 0.9835 0.0000
usemtl Material.003
s 1
f 1//1 2//1 3//1 4//1
f 5//2 1//2 4//2 6//2 7//2 8//2
f 1//3 9//3 10//3 2//3
f 2//4 11//4 12//4 13//4 14//4 3//4
f 3//5 14//5 6//5 4//5
f 15//1 5//1 8//1 16//1
f 17//2 7//2 6//2 9//2 1//2 5//2
f 7//5 18//5 16//5 8//5
f 19//6 20//6 21//6 22//6 23//6 14//6 10//6 9//6
f 24//4 11//4 2//4 10//4 14//4 13//4
f 19//6 9//6 6//6 14//6 23//6 25//6 26//6 27//6 28//6
f 29//2 15//2 16//2 18//2
f 15//3 29//3 17//3 5//3
f 29//6 18//6 7//6 17//6
f 19//7 30//7 31//7 32//7 33//7 34//7 35//7 36//7 37//7 38//7 39//7 40//7 41//7 42//7 43//7 44//7 45//7 46//7 47//7 48//7 49//7 50//7 51//7 52//7 53//7 54//7 55//7 56//7 57//7 58//7 59//7 60//7 20//7
f 21//8 20//8 60//8 61//8
f 13//6 62//6 63//6 24//6
f 24//3 63//3 64//3 11//3
f 11//1 64//1 65//1 12//1
f 66//9 30//9 19//9 28//9
f 67//10 31//10 30//10 66//10
f 68//11 32//11 31//11 67//11
f 69//12 33//12 32//12 68//12
f 70//13 34//13 33//13 69//13
f 71//14 35//14 34//14 70//14
f 36//15 35//15 71//15 72//15 73//15 74//15 75//15 76//15 77//15 78//15
f 78//16 79//16 80//16 81//16 37//16 36//16
f 38//17 82//17 83//17 39//17
f 39//18 83//18 84//18 40//18
f 40//19 84//19 85//19 41//19
f 41//20 85//20 86//20 42//20
f 42//21 86//21 87//21 43//21
f 43//22 87//22 88//22 44//22
f 44//23 88//23 89//23 45//23
f 45//24 89//24 90//24 46//24
f 46//25 90//25 91//25 47//25
f 47//26 91//26 92//26 48//26
f 48//27 92//27 93//27 49//27
f 49//28 93//28 94//28 50//28
f 50//29 94//29 95//29 51//29
f 51//30 95//30 96//30 52//30
f 53//31 97//31 98//31 99//31 100//31 54//31
f 100//32 101//32 102//32 103//32 104//32 105//32 106//33 107//32 55//32 54//32
f 108//34 56//34 55//34 107//34
f 109//35 57//35 56//35 108//35
f 110//36 58//36 57//36 109//36
f 111//37 59//37 58//37 110//37
f 61//38 60//38 59//38 111//38
f 65//5 62//5 13//5 12//5
f 64//4 63//4 62//4 65//4
f 81//39 112//39 113//39 82//39 38//39 37//39
f 82//7 113//7 114//7 115//7 116//7 117//7 118//7 119//7 120//7 121//7 122//7 123//7 124//7 125//7 126//7 127//7 128//7 129//7 96//7 95//7 94//7 93//7 92//7 91//7 90//7 89//7 88//7 87//7 86//7 85//7 84//7 83//7
f 97//40 53//40 52//40 96//40 129//40 130//40
f 131//15 132//41 73//15 72//15
f 76//42 133//42 134//42 77//42
f 77//43 134//43 135//43 79//43 78//43
f 112//5 81//5 136//5 97//5 130//5 137//5 138//5 139//5 140//5 141//5 142//5 143//5 144//5 145//5 146//5 147//5 148//5 149//5 150//5 151//5
f 151//9 114//9 113//9 112//9
f 150//10 115//10 114//10 151//10
f 149//11 116//11 115//11 150//11
f 148//12 117//12 116//12 149//12
f 147//13 118//13 117//13 148//13
f 146//14 119//14 118//14 147//14
f 145//15 120//15 119//15 146//15
f 144//16 121//16 120//16 145//16
f 143//31 122//31 121//31 144//31
f 142//32 123//32 122//32 143//32
f 141//34 124//34 123//34 142//34
f 140//35 125//35 124//35 141//35
f 139//36 126//36 125//36 140//36
f 138//37 127//37 126//37 139//37
f 137//38 128//38 127//38 138//38
f 130//8 129//8 128//8 137//8
f 101//44 152//44 153//44 102//44
f 101//45 100//45 99//45 154//45 152//45
f 106//33 105//32 155//33 156//33
f 157//15 158//15 132//41 131//15
f 132//46 159//46 160//46 73//46
f 73//47 160//47 161//47 74//47
f 75//48 162//48 133//48 76//48
f 161//6 160//6 159//6 163//6 164//6 165//6 166//6 167//6 168//6 169//6 170//6 171//6 172//6 173//6 174//6 175//6 176//6 177//6 178//6 179//6 153//6 152//6 154//6 180//6 181//6 182//6 183//6 184//6 135//6 134//6 133//6 162//6
f 136//16 81//16 185//16 186//16 187//16
f 97//31 136//31 187//31 188//31 189//31 190//31
f 102//49 153//49 179//49 103//49
f 104//50 178//50 177//50 105//50
f 105//51 177//51 176//51 155//51
f 156//33 155//33 191//32 192//32
f 193//15 194//15 158//15 157//15
f 158//52 163//52 159//52 132//52
f 74//53 161//53 162//53 75//53
f 194//54 164//54 163//54 158//54
f 195//55 165//55 164//55 194//55
f 166//56 165//56 195//56 196//56 197//56
f 166//57 197//57 198//57 199//57 167//57
f 199//58 200//58 201//58 168//58 167//58
f 201//59 202//59 203//59 169//59 168//59
f 204//60 170//60 169//60 203//60
f 170//61 204//61 205//61 206//61 171//61
f 171//62 206//62 207//62 208//62 172//62
f 172//63 208//63 209//63 210//63 173//63
f 211//64 174//64 173//64 210//64
f 191//65 175//65 174//65 211//65
f 155//66 176//66 175//66 191//66
f 103//67 179//67 178//67 104//67
f 212//68 180//68 154//68 99//68 98//68
f 181//69 180//69 212//69 190//69 189//69
f 188//70 182//70 181//70 189//70
f 183//71 182//71 188//71 187//71 186//71
f 186//72 185//72 213//72 184//72 183//72
f 80//73 79//73 135//73 184//73 213//73
f 185//16 81//16 80//16 213//16
f 97//31 190//31 212//31 98//31
f 192//32 191//32 211//32 214//32
f 215//15 195//15 194//15 193//15
f 216//31 204//31 203//31 217//31
f 214//32 211//32 210//32 218//32
f 219//15 196//15 195//15 215//15
f 220//16 198//16 197//16 196//16 221//16
f 222//16 200//16 199//16 223//16
f 224//16 202//16 201//16 200//16 225//16
f 217//74 203//74 202//74 224//75
f 226//31 205//31 204//31 216//31
f 227//31 209//31 208//31 207//31 228//31
f 218//32 210//32 209//32 229//32
f 221//15 196//15 219//15
f 223//16 199//16 198//16 220//16
f 225//16 200//16 222//16
f 230//31 205//31 226//31
f 231//31 206//31 205//31 230//31
f 228//31 207//31 206//31 231//31
f 229//32 209//32 227//32
f 25//5 232//5 233//5 26//5
f 22//4 234//4 232//4 25//4 23//4
f 235//6 233//6 232//6 234//6
f 26//2 233//2 235//2 27//2
f 27//7 235//7 234//7 22//7 21//7 61//7 111//7 110//7 109//7 108//7 107//7 106//7 156//7 192//7 214//7 218//7 229//7 227//7 228//7 231//7 230//7 226//7 216//7 217//7 224//7 225//7 222//7 223//7 220//7 221//7 219//7 215//7 193//7 157//7 131//7 72//7 71//7 70//7 69//7 68//7 67//7 66//7 28//7
